<svg xmlns="http://www.w3.org/2000/svg" viewBox="0 0 100 100" width="100" height="100">
  <defs>
    <linearGradient id="waGrad" x1="0%" y1="0%" x2="100%" y2="100%">
      <stop offset="0%" style="stop-color:#c4a494;stop-opacity:1" />
      <stop offset="100%" style="stop-color:#d4b5a0;stop-opacity:1" />
    </linearGradient>
  </defs>
  <!-- circle background -->
  <circle cx="50" cy="50" r="49" fill="url(#waGrad)"/>
  <!-- white chat bubble -->
  <path d="M 50 18 C 30 18 14 31 14 47 C 14 57 20 65.5 29 70L 25 85 L 40 75.5 C 42.5 75.8 45 76 47.5 76 C 67.5 76 84 63 84 47 C 84 31 67.5 18 50 18 Z" fill="#fff"/>
  <!-- WhatsApp phone icon -->
  <path d="M 45 35 C 45 33.9 45.9 33 47 33 L 63 33 C 64.1 33 65 33.9 65 35 L 65 63 C 65 64.1 64.1 65 63 65 L 47 65 C 45.9 65 45 64.1 45 63 Z M 47 36 L 63 36 L 63 62 L 47 62 Z M 50 61 L 60 61" stroke="#8d5a3a" stroke-width="1.5" stroke-linecap="round" fill="none"/>
  <!-- message lines -->
  <line x1="50" y1="42" x2="60" y2="42" stroke="#8d5a3a" stroke-width="1.5" stroke-linecap="round"/>
  <line x1="50" y1="47" x2="60" y2="47" stroke="#8d5a3a" stroke-width="1.5" stroke-linecap="round"/>
  <line x1="50" y1="52" x2="58" y2="52" stroke="#8d5a3a" stroke-width="1.5" stroke-linecap="round"/>
</svg>